<svg width="96" height="96" viewBox="0 0 96 96" fill="none" xmlns="http://www.w3.org/2000/svg">
<rect width="96" height="96" fill="white"/>
<path d="M29.5462 15.0515C21.8557 6.15906 19.1722 5 19.1722 5C19.1722 5 30.0849 26.8104 29.994 44.9858C29.9345 56.8564 27.0266 71.289 17.0518 87.0921C17.0518 87.0921 25.7165 83.8985 37.3689 69.1709C49.0214 54.4432 49.5287 42.641 49.5287 42.641C46.1792 42.7171 44.9811 40.2199 42.7175 37.015C38.4327 30.9493 34.0622 21.2476 29.5462 15.0515Z" fill="#A8354C"/>
<path d="M28.0316 16.7602C21.1787 7.35802 19.1064 4.90427 19.4493 5.39033C21.0925 11.8524 43.3262 45.6732 15 90.5498C15 90.5498 23.8486 87.0922 35.5013 72.3645C47.1539 57.6369 48.9932 46.1744 48.9932 46.1744C42.8682 47.8282 34.8845 26.163 28.0316 16.7602Z" fill="#F14668"/>
<path d="M80.3111 90.648C80.3111 90.648 69.5111 72.9109 68.5165 53.0538C67.9059 40.8657 74.6224 22.9468 80.9995 5.77527C80.9995 5.77527 79.2831 6.92141 75.6709 13.4135C74.4505 15.6071 72.6606 18.7975 70.9888 22.5103C70.1344 24.408 69.8286 26.7668 68.5158 28.5577C57.4219 43.6924 51.2034 62.198 51.2034 62.198C57.8541 60.0475 72.1943 80.0985 77.5 87.5C78.8259 89.349 80.3111 90.648 80.3111 90.648Z" fill="#A8354C"/>
<path d="M80.6169 90.9999C80.6169 90.9999 74.0172 83.1657 69.9091 75.6376C65.9683 68.4161 64.523 61.6765 64.0347 51.9265C63.4241 39.7383 69.5478 24.5167 79.7954 6.99219C79.7954 6.99219 75.3414 11.5004 64.0347 27.4305C58.7762 34.6042 53.5999 42.7421 51.0191 49.6885C48.166 57.3679 48.1992 63.4982 48.1992 63.4982C53.4048 62.7139 62.3005 71.7902 69.5676 79.4597C75.6185 85.8456 80.6169 90.9999 80.6169 90.9999Z" fill="#F14668"/>
</svg>
