<svg xmlns="http://www.w3.org/2000/svg" xmlns:xlink="http://www.w3.org/1999/xlink" width="106" height="106" viewBox="0 0 106 106">
  <defs>
    <linearGradient id="linear-gradient" x1="0.681" y1="0.066" x2="0.407" y2="0.977" gradientUnits="objectBoundingBox">
      <stop offset="0" stop-color="#fe6600"/>
      <stop offset="1" stop-color="#fb9600"/>
    </linearGradient>
    <filter id="bg" x="0" y="0" width="106" height="106" filterUnits="userSpaceOnUse">
      <feOffset dy="3" input="SourceAlpha"/>
      <feGaussianBlur stdDeviation="3" result="blur"/>
      <feFlood flood-opacity="0.161"/>
      <feComposite operator="in" in2="blur"/>
      <feComposite in="SourceGraphic"/>
    </filter>
    <linearGradient id="linear-gradient-2" x1="0.232" y1="0.079" x2="0.766" y2="0.655" gradientUnits="objectBoundingBox">
      <stop offset="0" stop-color="#fff" stop-opacity="0.769"/>
      <stop offset="1" stop-color="#fff" stop-opacity="0"/>
    </linearGradient>
  </defs>
  <g id="icon_triton_player" transform="translate(-859 -222)">
    <g transform="matrix(1, 0, 0, 1, 859, 222)" filter="url(#bg)">
      <circle id="bg-2" data-name="bg" cx="44" cy="44" r="44" transform="translate(9 6)" fill="url(#linear-gradient)"/>
    </g>
    <path id="trident" d="M12.816,55.739l.716-15.006H6.553A47.915,47.915,0,0,0,6.06,25.548,55.41,55.41,0,0,0,0,10.862,38.733,38.733,0,0,1,9.311,25.548,37.24,37.24,0,0,1,11.343,37.18H13.7L15.2,5.721l-1.575.672L16.112,0,18.76,6.393l-1.625-.672L18.7,37.18h2.346s.041-4.17,2.286-11.633S32,11.574,32,11.574c-3.178,4.608-4.387,9.259-5.167,13.974a84.359,84.359,0,0,0-1.03,15.185h-6.93l.747,15.006Z" transform="translate(894.765 242.406)"/>
    <g id="Group_23" data-name="Group 23" transform="translate(935.102 254.356)">
      <path id="Path_94" data-name="Path 94" d="M2930.967,1166.942a30.535,30.535,0,0,1,4.051,12.627,19.179,19.179,0,0,1-4.051,13.15s7.157-6.839,7.157-13.15S2930.967,1166.942,2930.967,1166.942Z" transform="translate(-2930.913 -1163.614)"/>
      <path id="Path_95" data-name="Path 95" d="M2924.895,1162.518s9.444,10.3,9.444,16.417c0,5.476-6.013,11.525-9.444,16.036,0,0,12.535-7.688,12.535-16.036S2924.895,1162.518,2924.895,1162.518Z" transform="translate(-2924.895 -1162.518)"/>
    </g>
    <g id="Group_25" data-name="Group 25" transform="translate(876.947 254.356)">
      <path id="Path_94-2" data-name="Path 94" d="M2938.124,1166.942a30.534,30.534,0,0,0-4.051,12.627,19.177,19.177,0,0,0,4.051,13.15s-7.157-6.839-7.157-13.15S2938.124,1166.942,2938.124,1166.942Z" transform="translate(-2925.644 -1163.614)"/>
      <path id="Path_95-2" data-name="Path 95" d="M2937.429,1162.518s-9.444,10.3-9.444,16.417c0,5.476,6.013,11.525,9.444,16.036,0,0-12.535-7.688-12.535-16.036S2937.429,1162.518,2937.429,1162.518Z" transform="translate(-2924.895 -1162.518)"/>
    </g>
    <path id="glint" d="M42.121,0c6.787,0,30.012,5.368,23.836,13.221C63.535,16.3,44.479,22.683,33.1,38.489c-10.185,14.146-7.961,45.519-10.38,43.058C20.123,78.9,12.161,76.13,7.245,68.972,2.048,61.407,0,49.316,0,44.29,0,19.829,18.858,0,42.121,0Z" transform="translate(868 228)" fill="url(#linear-gradient-2)"/>
  </g>
</svg>
