<svg width="512" height="512" viewBox="0 0 512 512" fill="none" xmlns="http://www.w3.org/2000/svg">
<g clip-path="url(#clip0_2_77)">
<mask id="mask0_2_77" style="mask-type:luminance" maskUnits="userSpaceOnUse" x="0" y="0" width="512" height="512">
<path d="M512 0H0V512H512V0Z" fill="white"/>
</mask>
<g mask="url(#mask0_2_77)">
<path d="M168.5 265.819H322.817L417.317 427.405V456.881L391.3 472.486H100.009L77.468 451.679V427.4L168.5 265.819Z" fill="black"/>
<path d="M180.769 57.6851H311.478V104.585C307.189 116.043 293.178 109.972 291.472 120.885V205.726L413.512 418.462C413.512 418.462 448.3 473.82 373.5 473.82H118.862C118.862 473.82 51.7891 479.366 84.0711 418.469C116.353 357.572 204.11 205.733 204.11 205.733C204.35 110.072 204.233 121.4 204.11 120.892C202.805 109.701 186.604 117.426 180.769 104.592V57.6851Z" stroke="black" stroke-width="18"/>
<path d="M152.4 341.465C152.4 341.465 223.692 288.443 242.8 371.54C248.8 397.632 240.959 431.753 205.28 441.447C160.5 447.266 157.345 392.312 157.345 392.312L242.8 373.644" stroke="white" stroke-width="20" stroke-linejoin="round"/>
<path d="M360.274 424.979C360.274 424.979 288.982 476.297 269.874 395.87C263.875 370.615 271.715 337.59 307.395 328.208C352.175 322.576 355.33 375.765 355.33 375.765L269.874 393.834" stroke="white" stroke-width="20" stroke-linejoin="round"/>
</g>
</g>
<defs>
<clipPath id="clip0_2_77">
<rect width="512" height="512" fill="white"/>
</clipPath>
</defs>
</svg>
