<svg width="256" height="256" viewBox="0 0 256 256" fill="none" xmlns="http://www.w3.org/2000/svg">
<g clip-path="url(#clip0_201_2)">
<rect width="256" height="256" fill="white"/>
<circle cx="127.5" cy="126.5" r="112.5" fill="url(#paint0_linear_201_2)"/>
<path d="M128.327 201.983L133.762 201.938L133.684 163.53L161.035 163.481L166.477 163.461L166.457 158.288L166.34 109.839L166.34 69L155.47 109.839L155.47 109.866L155.574 152.879L133.577 152.931L133.422 91.2787L144.299 91.26L127.888 50.5209L111.667 91.3314L122.551 91.3047L122.707 152.957L100.697 153.011L100.593 109.998L89.7231 69L89.7231 110.024L89.8397 158.473L89.8594 163.645L95.2951 163.632L122.66 163.583L122.846 201.983L128.327 201.983Z" fill="black"/>
<g clip-path="url(#clip1_201_2)">
<path d="M219.837 109.437C219.466 109.517 219.135 109.725 218.903 110.025C218.671 110.325 218.552 110.698 218.568 111.077L218.568 143.231C218.53 143.461 218.543 143.696 218.606 143.921C218.668 144.146 218.778 144.354 218.929 144.532C219.08 144.709 219.268 144.852 219.48 144.95C219.691 145.048 219.922 145.098 220.155 145.098C220.388 145.098 220.618 145.048 220.83 144.95C221.041 144.852 221.229 144.709 221.38 144.532C221.531 144.354 221.641 144.146 221.704 143.921C221.766 143.696 221.779 143.461 221.741 143.231L221.741 111.077C221.747 110.851 221.704 110.626 221.617 110.418C221.53 110.209 221.399 110.021 221.234 109.867C221.07 109.712 220.874 109.594 220.66 109.52C220.447 109.446 220.22 109.417 219.995 109.437C219.942 109.435 219.89 109.435 219.837 109.437ZM199.53 111.129C199.159 111.209 198.828 111.417 198.595 111.717C198.363 112.017 198.244 112.39 198.26 112.769L198.26 141.538C198.223 141.769 198.236 142.004 198.298 142.229C198.36 142.453 198.471 142.662 198.622 142.839C198.773 143.017 198.96 143.16 199.172 143.258C199.384 143.355 199.614 143.406 199.847 143.406C200.08 143.406 200.31 143.355 200.522 143.258C200.734 143.16 200.921 143.017 201.072 142.839C201.223 142.662 201.334 142.453 201.396 142.229C201.458 142.004 201.471 141.769 201.434 141.538L201.434 112.769C201.439 112.543 201.397 112.319 201.309 112.11C201.222 111.902 201.092 111.714 200.927 111.559C200.762 111.404 200.566 111.286 200.353 111.212C200.139 111.138 199.912 111.11 199.687 111.129C199.635 111.127 199.582 111.127 199.53 111.129ZM214.76 116.206C214.389 116.286 214.058 116.494 213.826 116.794C213.594 117.094 213.475 117.467 213.491 117.846L213.491 136.462C213.453 136.692 213.465 136.928 213.527 137.153C213.589 137.378 213.699 137.587 213.85 137.765C214.001 137.944 214.189 138.087 214.401 138.185C214.613 138.283 214.843 138.334 215.077 138.334C215.31 138.334 215.541 138.283 215.753 138.185C215.965 138.087 216.153 137.944 216.304 137.765C216.455 137.587 216.565 137.378 216.627 137.153C216.689 136.928 216.701 136.692 216.663 136.462L216.663 117.846C216.668 117.62 216.626 117.396 216.539 117.188C216.451 116.98 216.321 116.792 216.157 116.637C215.993 116.483 215.797 116.364 215.584 116.29C215.371 116.216 215.144 116.187 214.92 116.206C214.866 116.204 214.814 116.204 214.76 116.206ZM194.453 117.899C194.082 117.978 193.751 118.186 193.518 118.487C193.286 118.787 193.168 119.159 193.184 119.538L193.184 134.769C193.145 135 193.157 135.236 193.219 135.461C193.281 135.686 193.391 135.895 193.542 136.073C193.693 136.251 193.881 136.395 194.093 136.493C194.305 136.591 194.536 136.642 194.769 136.642C195.003 136.642 195.234 136.591 195.445 136.493C195.657 136.395 195.845 136.251 195.996 136.073C196.147 135.895 196.257 135.686 196.319 135.461C196.381 135.236 196.393 135 196.355 134.769L196.355 119.538C196.36 119.313 196.318 119.088 196.231 118.88C196.144 118.672 196.014 118.484 195.849 118.33C195.685 118.175 195.49 118.057 195.276 117.982C195.063 117.908 194.837 117.88 194.612 117.899C194.558 117.896 194.506 117.896 194.453 117.899ZM204.607 119.591C204.236 119.67 203.905 119.879 203.672 120.179C203.44 120.479 203.321 120.852 203.337 121.231L203.337 133.077C203.299 133.307 203.311 133.543 203.373 133.768C203.435 133.994 203.545 134.203 203.696 134.381C203.847 134.559 204.035 134.702 204.247 134.801C204.459 134.899 204.69 134.95 204.923 134.95C205.157 134.95 205.387 134.899 205.599 134.801C205.811 134.702 205.999 134.559 206.15 134.381C206.301 134.203 206.411 133.994 206.473 133.768C206.535 133.543 206.547 133.307 206.509 133.077L206.509 121.231C206.514 121.005 206.472 120.781 206.385 120.572C206.298 120.364 206.168 120.177 206.003 120.022C205.839 119.867 205.644 119.749 205.43 119.675C205.217 119.6 204.991 119.572 204.766 119.591C204.712 119.588 204.66 119.588 204.607 119.591ZM224.914 119.591C224.543 119.67 224.212 119.879 223.98 120.179C223.748 120.479 223.629 120.852 223.645 121.231L223.645 133.077C223.607 133.307 223.62 133.542 223.683 133.767C223.745 133.992 223.855 134.2 224.006 134.378C224.157 134.555 224.345 134.698 224.557 134.796C224.768 134.894 224.998 134.945 225.232 134.945C225.465 134.945 225.695 134.894 225.907 134.796C226.118 134.698 226.306 134.555 226.457 134.378C226.608 134.2 226.718 133.992 226.781 133.767C226.843 133.542 226.856 133.307 226.818 133.077L226.818 121.231C226.824 121.005 226.781 120.78 226.694 120.572C226.607 120.363 226.476 120.175 226.311 120.021C226.147 119.866 225.951 119.748 225.737 119.674C225.524 119.599 225.297 119.571 225.072 119.591C225.019 119.588 224.967 119.588 224.914 119.591ZM189.376 122.976C189.005 123.055 188.674 123.263 188.441 123.563C188.209 123.864 188.091 124.236 188.107 124.615L188.107 129.692C188.069 129.922 188.082 130.158 188.144 130.382C188.206 130.607 188.317 130.815 188.468 130.993C188.619 131.171 188.807 131.313 189.018 131.411C189.23 131.509 189.46 131.56 189.693 131.56C189.926 131.56 190.157 131.509 190.368 131.411C190.58 131.313 190.767 131.171 190.918 130.993C191.069 130.815 191.18 130.607 191.242 130.382C191.305 130.158 191.317 129.922 191.28 129.692L191.28 124.615C191.285 124.389 191.243 124.165 191.155 123.956C191.068 123.748 190.938 123.56 190.773 123.405C190.608 123.25 190.413 123.132 190.199 123.058C189.985 122.984 189.758 122.956 189.533 122.976C189.48 122.973 189.427 122.973 189.374 122.976L189.376 122.976ZM209.684 122.976C209.312 123.055 208.981 123.263 208.749 123.563C208.517 123.864 208.398 124.236 208.414 124.615L208.414 129.692C208.376 129.923 208.388 130.159 208.45 130.384C208.512 130.609 208.622 130.818 208.773 130.996C208.924 131.174 209.112 131.318 209.324 131.416C209.536 131.514 209.766 131.565 210 131.565C210.234 131.565 210.464 131.514 210.676 131.416C210.888 131.318 211.076 131.174 211.227 130.996C211.378 130.818 211.488 130.609 211.55 130.384C211.612 130.159 211.624 129.923 211.586 129.692L211.586 124.615C211.591 124.39 211.549 124.165 211.462 123.957C211.374 123.749 211.244 123.561 211.08 123.407C210.916 123.252 210.72 123.133 210.507 123.059C210.294 122.985 210.068 122.956 209.843 122.976C209.789 122.973 209.737 122.973 209.684 122.976ZM229.991 122.976C229.62 123.055 229.289 123.263 229.057 123.563C228.825 123.864 228.706 124.236 228.722 124.615L228.722 129.692C228.684 129.922 228.697 130.158 228.759 130.382C228.822 130.607 228.932 130.815 229.083 130.993C229.234 131.171 229.422 131.313 229.634 131.411C229.845 131.509 230.075 131.56 230.309 131.56C230.542 131.56 230.772 131.509 230.984 131.411C231.195 131.313 231.383 131.171 231.534 130.993C231.685 130.815 231.795 130.607 231.858 130.382C231.92 130.158 231.933 129.922 231.895 129.692L231.895 124.615C231.9 124.389 231.858 124.165 231.771 123.956C231.683 123.748 231.553 123.56 231.388 123.405C231.223 123.25 231.028 123.132 230.814 123.058C230.601 122.984 230.374 122.956 230.149 122.976C230.096 122.973 230.044 122.973 229.991 122.976Z" fill="black"/>
</g>
<g clip-path="url(#clip2_201_2)">
<path d="M58.8374 112.437C58.4663 112.517 58.1353 112.725 57.903 113.025C57.6707 113.325 57.5521 113.698 57.5681 114.077L57.5681 146.231C57.5304 146.461 57.5432 146.696 57.6056 146.921C57.668 147.146 57.7785 147.354 57.9294 147.532C58.0803 147.709 58.2681 147.852 58.4797 147.95C58.6912 148.048 58.9216 148.098 59.1547 148.098C59.3878 148.098 59.6181 148.048 59.8297 147.95C60.0413 147.852 60.229 147.709 60.3799 147.532C60.5309 147.354 60.6414 147.146 60.7037 146.921C60.7661 146.696 60.7789 146.461 60.7412 146.231L60.7412 114.077C60.7466 113.851 60.7042 113.626 60.6169 113.418C60.5296 113.209 60.3993 113.021 60.2345 112.867C60.0696 112.712 59.874 112.594 59.6604 112.52C59.4468 112.446 59.22 112.417 58.9948 112.437C58.9423 112.435 58.8898 112.435 58.8374 112.437ZM38.5297 114.129C38.1586 114.209 37.8276 114.417 37.5953 114.717C37.3631 115.017 37.2444 115.39 37.2604 115.769L37.2604 144.538C37.2228 144.769 37.2355 145.004 37.2979 145.229C37.3603 145.453 37.4708 145.662 37.6217 145.839C37.7726 146.017 37.9604 146.16 38.172 146.258C38.3835 146.355 38.6139 146.406 38.847 146.406C39.0801 146.406 39.3104 146.355 39.522 146.258C39.7336 146.16 39.9213 146.017 40.0723 145.839C40.2232 145.662 40.3337 145.453 40.396 145.229C40.4584 145.004 40.4712 144.769 40.4335 144.538L40.4335 115.769C40.4389 115.543 40.3965 115.319 40.3092 115.11C40.2219 114.902 40.0916 114.714 39.9268 114.559C39.7619 114.404 39.5663 114.286 39.3527 114.212C39.1391 114.138 38.9123 114.11 38.6871 114.129C38.6346 114.127 38.5821 114.127 38.5297 114.129ZM53.7604 119.206C53.3894 119.286 53.0584 119.494 52.8261 119.794C52.5938 120.094 52.4752 120.467 52.4912 120.846L52.4912 139.462C52.4527 139.692 52.4649 139.928 52.5268 140.153C52.5888 140.378 52.699 140.587 52.85 140.765C53.0009 140.944 53.1888 141.087 53.4007 141.185C53.6126 141.283 53.8434 141.334 54.0769 141.334C54.3105 141.334 54.5412 141.283 54.7531 141.185C54.965 141.087 55.1529 140.944 55.3039 140.765C55.4548 140.587 55.5651 140.378 55.627 140.153C55.689 139.928 55.7011 139.692 55.6626 139.462L55.6626 120.846C55.6679 120.62 55.6256 120.396 55.5385 120.188C55.4514 119.98 55.3214 119.792 55.157 119.637C54.9925 119.483 54.7973 119.364 54.5841 119.29C54.3709 119.216 54.1445 119.187 53.9195 119.206C53.866 119.204 53.814 119.204 53.7604 119.206ZM33.4528 120.899C33.0817 120.978 32.7507 121.186 32.5184 121.487C32.2861 121.787 32.1675 122.159 32.1835 122.538L32.1835 137.769C32.145 138 32.1572 138.236 32.2191 138.461C32.2811 138.686 32.3913 138.895 32.5423 139.073C32.6932 139.251 32.8811 139.395 33.093 139.493C33.3049 139.591 33.5357 139.642 33.7692 139.642C34.0028 139.642 34.2335 139.591 34.4454 139.493C34.6573 139.395 34.8452 139.251 34.9962 139.073C35.1471 138.895 35.2574 138.686 35.3193 138.461C35.3813 138.236 35.3934 138 35.3549 137.769L35.3549 122.538C35.3602 122.313 35.318 122.088 35.2308 121.88C35.1437 121.672 35.0137 121.484 34.8493 121.33C34.6848 121.175 34.4897 121.057 34.2765 120.982C34.0632 120.908 33.8368 120.88 33.6118 120.899C33.5583 120.896 33.5063 120.896 33.4528 120.899ZM43.6066 122.591C43.2355 122.67 42.9046 122.879 42.6723 123.179C42.44 123.479 42.3213 123.852 42.3374 124.231L42.3374 136.077C42.2989 136.307 42.311 136.543 42.373 136.768C42.4349 136.994 42.5452 137.203 42.6961 137.381C42.847 137.559 43.035 137.702 43.2469 137.801C43.4588 137.899 43.6895 137.95 43.9231 137.95C44.1566 137.95 44.3874 137.899 44.5993 137.801C44.8111 137.702 44.9991 137.559 45.15 137.381C45.3009 137.203 45.4112 136.994 45.4732 136.768C45.5351 136.543 45.5473 136.307 45.5088 136.077L45.5088 124.231C45.5141 124.005 45.4718 123.781 45.3847 123.572C45.2976 123.364 45.1676 123.177 45.0031 123.022C44.8387 122.867 44.6435 122.749 44.4303 122.675C44.2171 122.6 43.9906 122.572 43.7657 122.591C43.7121 122.588 43.6602 122.588 43.6066 122.591ZM63.9143 122.591C63.5432 122.67 63.2122 122.879 62.98 123.179C62.7477 123.479 62.629 123.852 62.6451 124.231L62.6451 136.077C62.6074 136.307 62.6202 136.542 62.6825 136.767C62.7449 136.992 62.8554 137.2 63.0063 137.378C63.1573 137.555 63.345 137.698 63.5566 137.796C63.7682 137.894 63.9985 137.945 64.2316 137.945C64.4647 137.945 64.695 137.894 64.9066 137.796C65.1182 137.698 65.3059 137.555 65.4569 137.378C65.6078 137.2 65.7183 136.992 65.7807 136.767C65.843 136.542 65.8558 136.307 65.8181 136.077L65.8181 124.231C65.8235 124.005 65.7811 123.78 65.6938 123.572C65.6065 123.363 65.4762 123.175 65.3114 123.021C65.1466 122.866 64.951 122.748 64.7373 122.674C64.5237 122.599 64.2969 122.571 64.0717 122.591C64.0192 122.588 63.9667 122.588 63.9143 122.591ZM28.3758 125.976C28.0048 126.055 27.6738 126.263 27.4415 126.563C27.2092 126.864 27.0906 127.236 27.1066 127.615L27.1066 132.692C27.0689 132.922 27.0817 133.158 27.1441 133.382C27.2065 133.607 27.3169 133.815 27.4679 133.993C27.6188 134.171 27.8066 134.313 28.0181 134.411C28.2297 134.509 28.46 134.56 28.6931 134.56C28.9263 134.56 29.1566 134.509 29.3682 134.411C29.5797 134.313 29.7675 134.171 29.9184 133.993C30.0693 133.815 30.1798 133.607 30.2422 133.382C30.3046 133.158 30.3174 132.922 30.2797 132.692L30.2797 127.615C30.2851 127.389 30.2427 127.165 30.1554 126.956C30.068 126.748 29.9377 126.56 29.7729 126.405C29.6081 126.25 29.4125 126.132 29.1989 126.058C28.9853 125.984 28.7584 125.956 28.5332 125.976C28.4802 125.973 28.4271 125.973 28.3741 125.976L28.3758 125.976ZM48.6835 125.976C48.3124 126.055 47.9815 126.263 47.7492 126.563C47.5169 126.864 47.3983 127.236 47.4143 127.615L47.4143 132.692C47.3758 132.923 47.3879 133.159 47.4499 133.384C47.5118 133.609 47.6221 133.818 47.773 133.996C47.924 134.174 48.1119 134.318 48.3238 134.416C48.5357 134.514 48.7664 134.565 49 134.565C49.2335 134.565 49.4643 134.514 49.6762 134.416C49.8881 134.318 50.076 134.174 50.2269 133.996C50.3779 133.818 50.4881 133.609 50.5501 133.384C50.612 133.159 50.6242 132.923 50.5857 132.692L50.5857 127.615C50.591 127.39 50.5487 127.165 50.4616 126.957C50.3745 126.749 50.2445 126.561 50.08 126.407C49.9156 126.252 49.7204 126.133 49.5072 126.059C49.294 125.985 49.0676 125.956 48.8426 125.976C48.789 125.973 48.7371 125.973 48.6835 125.976ZM68.9912 125.976C68.6201 126.055 68.2892 126.263 68.0569 126.563C67.8246 126.864 67.706 127.236 67.722 127.615L67.722 132.692C67.6843 132.922 67.6971 133.158 67.7595 133.382C67.8218 133.607 67.9323 133.815 68.0833 133.993C68.2342 134.171 68.4219 134.313 68.6335 134.411C68.8451 134.509 69.0754 134.56 69.3085 134.56C69.5416 134.56 69.772 134.509 69.9835 134.411C70.1951 134.313 70.3829 134.171 70.5338 133.993C70.6847 133.815 70.7952 133.607 70.8576 133.382C70.92 133.158 70.9328 132.922 70.8951 132.692L70.8951 127.615C70.9004 127.389 70.8581 127.165 70.7708 126.956C70.6834 126.748 70.5531 126.56 70.3883 126.405C70.2235 126.25 70.0279 126.132 69.8143 126.058C69.6007 125.984 69.3738 125.956 69.1486 125.976C69.0962 125.973 69.0436 125.973 68.9912 125.976Z" fill="black"/>
</g>
<path d="M60.5141 215C54.154 187.157 72.3141 133.648 115.581 117.307C233.018 72.9525 203.799 28.5978 141.932 14.9327C137.168 14.3173 132.312 14 127.381 14C65.3145 14 15 64.2742 15 126.291C15 160.233 36.6921 194.41 60.5141 215Z" fill="url(#paint1_linear_201_2)"/>
</g>
<defs>
<linearGradient id="paint0_linear_201_2" x1="181.5" y1="28.625" x2="81.9375" y2="219.875" gradientUnits="userSpaceOnUse">
<stop stop-color="#FE6700"/>
<stop offset="1" stop-color="#FB9500"/>
</linearGradient>
<linearGradient id="paint1_linear_201_2" x1="138.619" y1="16.8073" x2="64.5523" y2="218.969" gradientUnits="userSpaceOnUse">
<stop stop-color="white" stop-opacity="0.57"/>
<stop offset="1" stop-color="white" stop-opacity="0"/>
</linearGradient>
<clipPath id="clip0_201_2">
<rect width="256" height="256" fill="white"/>
</clipPath>
<clipPath id="clip1_201_2">
<rect width="44" height="44" fill="white" transform="translate(188 106)"/>
</clipPath>
<clipPath id="clip2_201_2">
<rect width="44" height="44" fill="white" transform="translate(27 109)"/>
</clipPath>
</defs>
</svg>
