<svg width="96" height="96" viewBox="0 0 96 96" fill="none" xmlns="http://www.w3.org/2000/svg">
<rect width="96" height="96" fill="white"/>
<path d="M12 23C12 19.134 15.134 16 19 16H77C80.866 16 84 19.134 84 23V65C84 68.866 80.866 72 77 72H12V23Z" fill="#FF9800"/>
<path d="M34 72V80L12 72H34Z" fill="#B76D00"/>
<rect x="19" y="34" width="58" height="22" fill="#009688"/>
<path d="M22.7227 45.793C22.7227 43.3255 23.1263 41.4928 23.9336 40.2949C24.7474 39.097 25.9876 38.498 27.6543 38.498C29.3275 38.498 30.5872 39.123 31.4336 40.373C32.2799 41.623 32.7031 43.4753 32.7031 45.9297C32.7031 48.3776 32.293 50.2005 31.4727 51.3984C30.6589 52.5964 29.4154 53.1953 27.7422 53.1953C26.069 53.1953 24.8125 52.5768 23.9727 51.3398C23.1393 50.1029 22.7227 48.2539 22.7227 45.793ZM29.2168 42.0918C28.9043 41.3236 28.3932 40.9395 27.6836 40.9395C26.9805 40.9395 26.4759 41.3236 26.1699 42.0918C25.8704 42.86 25.7207 44.1198 25.7207 45.8711C25.7207 47.6224 25.8704 48.8757 26.1699 49.6309C26.4759 50.3861 26.9837 50.7637 27.6934 50.7637C28.403 50.7637 28.9141 50.3796 29.2266 49.6113C29.5391 48.8366 29.6953 47.5801 29.6953 45.8418C29.6953 44.097 29.5358 42.847 29.2168 42.0918ZM51.2059 47.6973H52.9246V50.041H51.2059V53H48.2566V50.041H42.1629V47.9414L48.4227 38.7227H51.2059V47.6973ZM48.2566 47.6973V45.2754C48.2566 44.9564 48.2697 44.3997 48.2957 43.6055C48.3283 42.8112 48.3576 42.3359 48.3836 42.1797H48.3055C48.0385 42.7656 47.7488 43.2865 47.4363 43.7422L44.8191 47.6973H48.2566ZM67.5699 38.5176C68.8655 38.5176 69.9299 38.8757 70.7633 39.5918C71.6031 40.3079 72.023 41.2227 72.023 42.3359C72.023 42.349 72.023 42.3652 72.023 42.3848C72.023 43.0423 71.9091 43.6576 71.6813 44.2305C71.4534 44.7969 71.1018 45.3796 70.6266 45.9785C70.1578 46.571 69.2952 47.4434 68.0387 48.5957L66.2027 50.3242V50.4609H72.4234V53H62.443V50.9004L66.027 47.2773C67.0882 46.1966 67.7815 45.4447 68.107 45.0215C68.4326 44.5983 68.6669 44.2109 68.8102 43.8594C68.9534 43.5013 69.025 43.127 69.025 42.7363C69.025 42.1764 68.8688 41.7533 68.5563 41.4668C68.2503 41.1803 67.8271 41.0371 67.2867 41.0371C66.3036 41.0371 65.2229 41.5254 64.0445 42.502L62.4039 40.5586C63.1201 39.9531 63.7027 39.5299 64.152 39.2891C65.109 38.7747 66.2255 38.5176 67.5016 38.5176C67.5276 38.5176 67.5504 38.5176 67.5699 38.5176Z" fill="white"/>
</svg>
