<svg width="72" height="64" viewBox="0 0 72 64" fill="none" xmlns="http://www.w3.org/2000/svg">
<path d="M0 7C0 3.13401 3.13401 0 7 0H65C68.866 0 72 3.13401 72 7V49C72 52.866 68.866 56 65 56H0V7Z" fill="#FF9800"/>
<path d="M22 56V64L0 56H22Z" fill="#B76D00"/>
<rect x="7" y="18" width="58" height="22" fill="#009688"/>
<path d="M10.7227 29.793C10.7227 27.3255 11.1263 25.4928 11.9336 24.2949C12.7474 23.097 13.9876 22.498 15.6543 22.498C17.3275 22.498 18.5872 23.123 19.4336 24.373C20.2799 25.623 20.7031 27.4753 20.7031 29.9297C20.7031 32.3776 20.293 34.2005 19.4727 35.3984C18.6589 36.5964 17.4154 37.1953 15.7422 37.1953C14.069 37.1953 12.8125 36.5768 11.9727 35.3398C11.1393 34.1029 10.7227 32.2539 10.7227 29.793ZM17.2168 26.0918C16.9043 25.3236 16.3932 24.9395 15.6836 24.9395C14.9805 24.9395 14.4759 25.3236 14.1699 26.0918C13.8704 26.86 13.7207 28.1198 13.7207 29.8711C13.7207 31.6224 13.8704 32.8757 14.1699 33.6309C14.4759 34.3861 14.9837 34.7637 15.6934 34.7637C16.403 34.7637 16.9141 34.3796 17.2266 33.6113C17.5391 32.8366 17.6953 31.5801 17.6953 29.8418C17.6953 28.097 17.5358 26.847 17.2168 26.0918ZM39.2059 31.6973H40.9246V34.041H39.2059V37H36.2566V34.041H30.1629V31.9414L36.4227 22.7227H39.2059V31.6973ZM36.2566 31.6973V29.2754C36.2566 28.9564 36.2697 28.3997 36.2957 27.6055C36.3283 26.8112 36.3576 26.3359 36.3836 26.1797H36.3055C36.0385 26.7656 35.7488 27.2865 35.4363 27.7422L32.8191 31.6973H36.2566ZM55.5699 22.5176C56.8655 22.5176 57.9299 22.8757 58.7633 23.5918C59.6031 24.3079 60.023 25.2227 60.023 26.3359C60.023 26.349 60.023 26.3652 60.023 26.3848C60.023 27.0423 59.9091 27.6576 59.6813 28.2305C59.4534 28.7969 59.1018 29.3796 58.6266 29.9785C58.1578 30.571 57.2952 31.4434 56.0387 32.5957L54.2027 34.3242V34.4609H60.4234V37H50.443V34.9004L54.027 31.2773C55.0882 30.1966 55.7815 29.4447 56.107 29.0215C56.4326 28.5983 56.6669 28.2109 56.8102 27.8594C56.9534 27.5013 57.025 27.127 57.025 26.7363C57.025 26.1764 56.8688 25.7533 56.5563 25.4668C56.2503 25.1803 55.8271 25.0371 55.2867 25.0371C54.3036 25.0371 53.2229 25.5254 52.0445 26.502L50.4039 24.5586C51.1201 23.9531 51.7027 23.5299 52.152 23.2891C53.109 22.7747 54.2255 22.5176 55.5016 22.5176C55.5276 22.5176 55.5504 22.5176 55.5699 22.5176Z" fill="white"/>
</svg>
