<svg width="96" height="96" viewBox="0 0 96 96" fill="none" xmlns="http://www.w3.org/2000/svg">
<rect width="96" height="96" fill="white"/>
<g clip-path="url(#clip0_203_2)">
<path d="M29.885 16.584C22.5441 8.10515 19.9825 7 19.9825 7C19.9825 7 30.3993 27.796 30.3124 45.126C30.2557 56.4445 27.4799 70.2058 17.9585 85.2739C17.9585 85.2739 26.2293 82.2288 37.3522 68.1862C48.475 54.1435 48.9592 42.8902 48.9592 42.8902C45.7619 42.9629 44.6184 40.5817 42.4576 37.5259C38.3676 31.7423 34.1958 22.4919 29.885 16.584Z" fill="#4F0084"/>
<path d="M28.4393 18.2133C21.8978 9.24841 19.9197 6.90879 20.2471 7.37225C21.8156 13.5338 43.0386 45.7815 16 88.5708C16 88.5708 24.4464 85.274 35.5694 71.2313C46.6923 57.1887 48.4481 46.2594 48.4481 46.2594C42.6015 47.8362 34.9807 27.1787 28.4393 18.2133Z" fill="url(#paint0_linear_203_2)"/>
<path d="M78.3425 88.6644C78.3425 88.6644 68.0334 71.7524 67.084 52.8188C66.5012 41.1976 72.9124 24.1121 78.9996 7.73926C78.9996 7.73926 77.3613 8.83209 73.9133 15.0223C72.7483 17.1138 71.0397 20.1558 69.444 23.6959C68.6284 25.5053 68.3365 27.7544 67.0833 29.4621C56.4937 43.8928 50.5579 61.5377 50.5579 61.5377C56.9063 59.4872 70.9355 78.9428 76 86C77.2656 87.763 78.3425 88.6644 78.3425 88.6644Z" fill="#4F0084"/>
<path d="M78.6344 88.9999C78.6344 88.9999 72.3346 81.5301 68.4133 74.3522C64.6515 67.4665 63.272 61.0404 62.8058 51.7439C62.223 40.1226 68.0683 25.609 77.8502 8.89954C77.8502 8.89954 73.5986 13.1981 62.8058 28.3872C57.7864 35.2273 52.8454 42.9866 50.3819 49.61C47.6584 56.9322 47.6902 62.7774 47.6902 62.7774C52.6592 62.0295 61.1505 70.6837 68.0873 77.9964C73.8631 84.0854 78.6344 88.9999 78.6344 88.9999Z" fill="url(#paint1_linear_203_2)"/>
</g>
<defs>
<linearGradient id="paint0_linear_203_2" x1="32.224" y1="7.31677" x2="32.224" y2="88.5708" gradientUnits="userSpaceOnUse">
<stop stop-color="#8316CB"/>
<stop offset="0.666" stop-color="#7F14C5"/>
<stop offset="1" stop-color="#4F0084"/>
</linearGradient>
<linearGradient id="paint1_linear_203_2" x1="63.1623" y1="8.89954" x2="63.1623" y2="88.9999" gradientUnits="userSpaceOnUse">
<stop stop-color="#8316CB"/>
<stop offset="0.392" stop-color="#7F14C5"/>
<stop offset="1" stop-color="#4F0084"/>
</linearGradient>
<clipPath id="clip0_203_2">
<rect width="63" height="82" fill="white" transform="translate(16 7)"/>
</clipPath>
</defs>
</svg>
